HIERARCHY
ROOT Hips
{
  OFFSET 0 0 0
  CHANNELS 6 Xposition Yposition Zposition Zrotation Xrotation Yrotation
  JOINT Spine
  {
    OFFSET 0 10 0
    CHANNELS 3 Zrotation Xrotation Yrotation
    JOINT Neck
    {
      OFFSET 0 30 0
      CHANNELS 3 Zrotation Xrotation Yrotation
      JOINT Head
      {
        OFFSET 0 8 0
        CHANNELS 3 Zrotation Xrotation Yrotation
        End Site
        {
          OFFSET 0 10 0
        }
      }
    }
    JOINT LeftArm
    {
      OFFSET 15 30 0
      CHANNELS 3 Zrotation Xrotation Yrotation
      JOINT LeftForeArm
      {
        OFFSET 25 0 0
        CHANNELS 3 Zrotation Xrotation Yrotation
        JOINT LeftHand
        {
          OFFSET 25 0 0
          CHANNELS 3 Zrotation Xrotation Yrotation
          End Site
          {
            OFFSET 10 0 0
          }
        }
      }
    }
    JOINT RightArm
    {
      OFFSET -15 30 0
      CHANNELS 3 Zrotation Xrotation Yrotation
      JOINT RightForeArm
      {
        OFFSET -25 0 0
        CHANNELS 3 Zrotation Xrotation Yrotation
        JOINT RightHand
        {
          OFFSET -25 0 0
          CHANNELS 3 Zrotation Xrotation Yrotation
          End Site
          {
            OFFSET -10 0 0
          }
        }
      }
    }
  }
  JOINT LeftUpLeg
  {
    OFFSET 10 -10 0
    CHANNELS 3 Zrotation Xrotation Yrotation
    JOINT LeftLeg
    {
      OFFSET 0 -35 0
      CHANNELS 3 Zrotation Xrotation Yrotation
      JOINT LeftFoot
      {
        OFFSET 0 -40 0
        CHANNELS 3 Zrotation Xrotation Yrotation
        End Site
        {
          OFFSET 0 0 15
        }
      }
    }
  }
  JOINT RightUpLeg
  {
    OFFSET -10 -10 0
    CHANNELS 3 Zrotation Xrotation Yrotation
    JOINT RightLeg
    {
      OFFSET 0 -35 0
      CHANNELS 3 Zrotation Xrotation Yrotation
      JOINT RightFoot
      {
        OFFSET 0 -40 0
        CHANNELS 3 Zrotation Xrotation Yrotation
        End Site
        {
          OFFSET 0 0 15
        }
      }
    }
  }
}
MOTION
Frames: 20
Frame Time: 0.00833333
7.42033 72.8754 3.60963 0.738378 3.32056 -12.6494 13.2901 -24.3748 1.14972 7.17125 -11.3427 4.32581 -5.2397 16.6122 5.88126 -51.7578 37.9789 -13.059 26.8744 -13.1568 -51.5313 2.69821e-05 -61.7649 3.06262e-05 36.63 45.7919 37.7173 -27.3843 -13.7953 52.8128 -7.68823e-06 -40.3101 -1.58339e-05 -6.14268 -18.355 -17.5355 -10.767 49.6951 13.5527 6.12135 -29.5728 1.71095 -8.44392 -23.6945 16.7183 6.97803 51.1605 -3.16353 7.40757 -30.6313 -2.03801
5.08236 75.7099 4.24535 1.40104 3.81083 -11.6939 13.1155 -23.86 1.18069 7.40662 -11.408 4.52461 -5.6204 16.5644 6.21282 -52.1043 37.4029 -12.9575 26.8687 -13.1499 -51.5175 2.66165e-05 -61.4379 3.03047e-05 36.5296 45.4869 38.0883 -27.4443 -13.8721 52.965 -7.6427e-06 -40.1842 -1.58045e-05 -5.25058 -14.5978 -19.2527 -7.56644 42.1757 10.0066 5.33617 -23.1817 3.75031 -7.72699 -20.1961 14.6441 5.55212 44.6193 -2.12551 4.6764 -26.8753 -3.80169
2.85353 79.8861 5.01458 0.0534222 4.20517 -8.90366 12.9467 -23.4423 1.19185 7.58788 -11.4246 4.71676 -5.97123 16.543 6.5462 -52.3957 36.8917 -12.8684 26.874 -13.1564 -51.5305 2.6308e-05 -61.1564 3.0034e-05 36.5018 45.1998 38.3796 -27.4961 -13.9385 53.0968 -7.60843e-06 -40.0891 -1.57824e-05 -1.42171 -10.5622 -20.2043 -4.8457 32.9315 6.83979 2.8614 -12.001 3.02238 -5.43303 -14.0226 10.2068 3.78866 33.8826 -1.04011 1.72194 -17.718 -5.19186
0.588625 84.6553 5.68001 -0.454849 3.98498 -6.83608 12.8313 -23.2433 1.19473 7.67289 -11.3512 4.89818 -6.24895 16.5546 6.87744 -52.6216 36.4908 -12.774 26.8911 -13.1773 -51.5729 2.6113e-05 -60.9759 2.98633e-05 36.5233 44.9757 38.5982 -27.5332 -13.9865 53.192 -7.57743e-06 -40.0029 -1.57624e-05 0.775319 -7.22674 -20.7698 -3.06252 24.4603 4.62131 1.34899 4.82566 4.97524 -4.28047 -8.48588 5.30498 2.5026 23.8634 -0.449632 -0.949559 -3.20125 -2.35639
-1.62056 89.2653 6.08126 -0.71023 4.12874 -5.81639 12.7256 -23.1769 1.20375 7.70513 -11.2216 5.07975 -6.48235 16.5975 7.21734 -52.7892 36.1664 -12.6771 26.9164 -13.2083 -51.6359 2.60021e-05 -60.8724 2.97664e-05 36.5724 44.8046 38.7721 -27.5596 -14.021 53.2599 -7.55012e-06 -39.9268 -1.57449e-05 1.47446 -5.85635 -19.9161 -2.02385 18.0728 3.21864 0.903233 17.1327 10.7648 -3.46054 -5.73459 2.42593 1.67292 16.4414 -0.187516 1.39952 12.4579 2.35327
-3.52709 93.0943 6.3007 -0.973406 4.13191 -5.85737 12.5742 -23.1998 1.2505 7.72738 -11.059 5.27979 -6.67981 16.6771 7.58606 -52.893 35.8986 -12.5692 26.9465 -13.2455 -51.7107 2.59845e-05 -60.8559 2.9751e-05 36.6115 44.7065 38.9418 -27.5773 -14.0442 53.3058 -7.52127e-06 -39.8462 -1.57264e-05 0.646616 -6.20302 -16.0495 -1.87486 17.0644 3.01765 5.6787 14.9952 14.0502 -3.11941 -4.53651 -0.331833 1.13489 11.306 -0.0752277 4.95333 26.3679 7.72081
-5.38067 95.9886 6.40381 -1.01533 3.94958 -6.322 12.3918 -23.3117 1.33167 7.73316 -10.8611 5.4946 -6.84537 16.7921 7.97919 -52.9364 35.6899 -12.4526 26.9813 -13.2882 -51.7971 2.60546e-05 -60.9216 2.98123e-05 36.6395 44.6769 39.1052 -27.5855 -14.0551 53.3273 -7.49234e-06 -39.7652 -1.57078e-05 -0.966813 -7.51096 -11.4607 -2.11055 18.6778 3.34925 7.36499 12.7048 11.4263 -3.03402 -4.22303 -1.35963 0.852743 8.53552 -0.035639 6.48461 35.1726 11.5552
-7.24331 98.0345 6.39618 -1.05396 3.62316 -6.54611 12.2653 -23.4156 1.45885 7.73399 -10.6506 5.71197 -7.04565 16.9305 8.37075 -52.9538 35.5243 -12.3484 27.0105 -13.3243 -51.8701 2.61533e-05 -61.0134 2.98986e-05 36.5858 44.6888 39.3072 -27.5781 -14.0453 53.3079 -7.47163e-06 -39.707 -1.56946e-05 -2.76565 -8.68064 -7.6135 -2.27213 19.7224 3.56247 6.63588 11.3276 6.92756 -3.10326 -4.5987 -0.663371 0.904077 9.04536 -0.0418813 4.57165 31.5776 11.1044
-9.03964 99.3109 6.42164 -1.11681 3.20362 -6.61871 12.197 -23.5118 1.6323 7.73447 -10.4312 5.93317 -7.28869 17.092 8.76026 -52.9441 35.3993 -12.2582 27.0343 -13.3541 -51.9301 2.62814e-05 -61.1319 3.00107e-05 36.4488 44.7387 39.5527 -27.5548 -14.0147 53.2476 -7.45928e-06 -39.6724 -1.56867e-05 -4.6617 -9.03706 -4.52135 -2.12533 18.7595 3.36076 4.52646 11.2055 2.35693 -3.60351 -4.86824 -0.0366654 1.02879 10.2684 -0.058745 2.6621 24.7601 7.1021
-10.7305 99.808 6.481 -1.24193 2.89354 -6.46144 12.1625 -23.5686 1.82905 7.69641 -10.1807 6.14137 -7.50455 17.2625 9.14939 -52.9508 35.3096 -12.1636 27.0522 -13.3765 -51.9752 2.63966e-05 -61.2378 3.01116e-05 36.2599 44.8229 39.7957 -27.5237 -13.9741 53.1672 -7.45144e-06 -39.6503 -1.56817e-05 -6.65351 -9.09413 -3.36461 -1.8603 16.9419 2.98951 3.26179 12.3686 -0.937631 -4.43942 -5.03361 -0.110011 1.13862 11.3418 -0.0758369 -0.288936 19.4497 3.97458
-12.3807 99.4769 6.58874 -1.43713 2.76285 -6.26738 12.1752 -23.5646 2.05573 7.61545 -9.89167 6.33908 -7.69032 17.4538 9.55387 -53.0034 35.2549 -12.0502 27.0638 -13.3911 -52.0046 2.64674e-05 -61.3025 3.01737e-05 36.0099 44.9486 40.0258 -27.4873 -13.927 53.0738 -7.44775e-06 -39.64 -1.56794e-05 -8.57965 -9.11596 -3.861 -1.59617 15.02 2.61057 1.44898 13.3412 -1.94187 -5.4915 -5.29074 -1.07498 1.23163 12.2434 -0.0918693 -1.80923 17.3948 2.83303
-14.0619 98.3209 6.70675 -1.69855 2.63909 -6.11534 12.1732 -23.5045 2.26288 7.45132 -9.55884 6.49197 -7.76656 17.6072 9.9209 -53.0747 35.2298 -11.9423 27.0675 -13.3957 -52.0137 2.65224e-05 -61.3525 3.0222e-05 35.7539 45.0877 40.2227 -27.4465 -13.8743 52.9694 -7.44586e-06 -39.6346 -1.56782e-05 -9.99323 -9.24294 -4.18482 -1.37148 13.2884 2.27982 0.407022 11.941 -3.19434 -6.61757 -5.43999 -2.31328 1.27445 12.6583 -0.0994175 -2.43615 17.6452 3.86403
-15.8026 96.3578 6.82453 -2.14959 2.68451 -6.29355 12.0841 -23.3654 2.39353 7.06869 -9.12303 6.53382 -7.50791 17.5622 10.1516 -53.1514 35.2181 -11.8604 27.061 -13.3876 -51.9975 2.65807e-05 -61.4055 3.02732e-05 35.5532 45.2063 40.3591 -27.4046 -13.8205 52.8626 -7.44192e-06 -39.6235 -1.56757e-05 -10.6538 -9.66465 -4.51401 -1.21297 12.0079 2.04135 -1.6082 10.4216 -4.29584 -7.47499 -5.84314 -3.0293 1.30322 12.932 -0.106587 -2.96705 17.1132 4.84817
-17.6056 93.5842 6.85545 -2.68291 2.8643 -6.88777 11.9349 -23.1835 2.4653 6.62958 -8.6708 6.52381 -7.15191 17.4943 10.3336 -53.2314 35.231 -11.7993 27.0459 -13.3687 -51.9596 2.66367e-05 -61.4561 3.03224e-05 35.3982 45.3161 40.4396 -27.3606 -13.7643 52.7511 -7.43759e-06 -39.6114 -1.56729e-05 -10.6342 -10.6541 -5.5666 -1.28447 12.5919 2.14949 -4.96049 12.7658 -4.13794 -8.07536 -6.80191 -3.15521 1.39966 13.8588 -0.12452 -3.27719 15.6837 4.1006
-19.4857 90.0185 6.78243 -3.65091 2.91468 -7.48785 11.7503 -23.0613 2.47878 6.62385 -8.48223 6.62016 -7.4118 17.93 10.7183 -53.2996 35.2925 -11.7595 27.0251 -13.3428 -51.9072 2.66872e-05 -61.5015 3.03667e-05 35.3048 45.4267 40.4607 -27.3129 -13.7034 52.6299 -7.43525e-06 -39.6048 -1.56714e-05 -9.60738 -12.3362 -6.48803 -1.795 16.4774 2.89677 -7.41917 15.4632 -4.66732 -7.97051 -8.03808 -2.35299 1.63718 16.1075 -0.178599 -3.44489 12.309 2.0081
-21.3689 85.6594 6.54064 -4.35139 2.61943 -8.17417 11.5277 -22.9951 2.4311 7.04669 -8.55486 6.81965 -8.29522 18.8619 11.3096 -53.3569 35.403 -11.7418 26.998 -13.3092 -51.8394 2.67317e-05 -61.5416 3.04058e-05 35.2745 45.5378 40.4205 -27.2611 -13.6377 52.4985 -7.43488e-06 -39.6037 -1.56712e-05 -8.44167 -14.4101 -7.02481 -2.92635 23.6831 4.43817 5.68642 3.89135 -10.5919 -8.19192 -9.91087 -0.952508 2.20912 21.3168 -0.345206 -0.372969 8.63035 0.493201
-23.2405 80.7315 5.99404 -4.50862 2.60723 -9.10391 11.2934 -23.006 2.38578 7.4364 -8.63039 6.97402 -9.14626 19.7711 11.8325 -53.3662 35.5915 -11.7566 26.9651 -13.2684 -51.7569 2.67756e-05 -61.5809 3.04444e-05 35.362 45.6513 40.2582 -27.2182 -13.5835 52.3905 -7.43656e-06 -39.6084 -1.56722e-05 -7.21327 -17.1369 -6.77531 -4.35309 30.8325 6.2415 3.8616 -13.2625 -11.0512 -8.68691 -13.7868 -0.158674 3.36131 30.7647 -0.821745 3.75383 -8.76451 4.65062
-25.1344 76.1376 5.09344 -1.01527 4.70871 -9.13689 11.0426 -23.1102 2.34812 7.72669 -8.67306 7.05677 -9.8589 20.589 12.2374 -53.3158 35.8679 -11.8106 26.9242 -13.2178 -51.6548 2.68164e-05 -61.6175 3.04803e-05 35.5862 45.7677 39.9573 -27.1881 -13.5455 52.3143 -7.44098e-06 -39.6209 -1.5675e-05 -11.4941 -26.2249 -11.2577 -8.01153 43.3966 10.5089 5.71815 -21.228 -7.17269 -12.5624 -22.2387 -1.25736 5.20174 42.7409 -1.88963 7.94873 -22.3171 7.68851
-26.7192 72.6615 4.25519 1.48514 6.7016 -8.16675 10.8192 -23.2583 2.34098 7.91741 -8.68161 7.09162 -10.4465 21.3034 12.5446 -53.2282 36.2123 -11.8841 26.8853 -13.17 -51.5582 2.68706e-05 -61.6658 3.05281e-05 35.9101 45.8828 39.5387 -27.164 -13.5153 52.254 -7.44523e-06 -39.6328 -1.56778e-05 -16.0071 -34.3866 -17.4149 -13.3362 54.132 16.3211 8.33734 -23.2014 -3.9176 -14.764 -30.3211 -1.74925 7.70549 53.9155 -3.73203 8.13868 -29.218 6.05671
-28.0064 70.3401 3.5015 2.15604 5.52315 -9.43399 10.6854 -23.4243 2.40415 7.9265 -8.62684 7.06384 -10.8173 21.8372 12.6975 -53.117 36.6235 -11.9601 26.8571 -13.1355 -51.4882 2.69576e-05 -61.7431 3.06047e-05 36.3318 45.9912 38.9844 -27.1458 -13.4929 52.2093 -7.44801e-06 -39.6407 -1.56795e-05 -16.2839 -35.7125 -18.3489 -16.8771 58.7629 20.0691 6.75621 -27.0221 -3.103 -12.285 -34.6529 2.88978 10.8071 62.5535 -6.34808 3.36672 -31.4087 -0.262378
